<svg width="20" height="20" viewBox="0 0 20 20" fill="none" xmlns="http://www.w3.org/2000/svg">
<path fill-rule="evenodd" clip-rule="evenodd" d="M10 0C15.523 0 20 4.477 20 10C20 15.523 15.523 20 10 20C4.477 20 0 15.523 0 10C0 4.477 4.477 0 10 0ZM11.617 11.984C9.06796 12.7345 6.83947 14.3085 5.28 16.46C6.64904 17.4632 8.30276 18.0027 10 18C11.0383 18.0017 12.067 17.8003 13.028 17.407C12.7134 15.562 12.2414 13.7474 11.617 11.983V11.984ZM13.595 11.581C14.127 13.124 14.555 14.716 14.869 16.349C16.3361 15.224 17.3686 13.6259 17.791 11.826C16.4173 11.5004 14.9973 11.4175 13.595 11.581ZM10.351 8.912C7.67518 9.85558 4.82287 10.1917 2.001 9.896L2 10C2 11.927 2.682 13.695 3.817 15.076C5.59331 12.7187 8.06812 10.9819 10.889 10.113C10.7177 9.70944 10.5383 9.30936 10.351 8.913V8.912ZM16.488 5.319C15.1929 6.4501 13.7504 7.40042 12.2 8.144C12.434 8.644 12.657 9.149 12.868 9.661C14.568 9.401 16.318 9.455 17.998 9.822C17.9646 8.20231 17.4378 6.63137 16.488 5.319ZM6.574 2.77C5.52882 3.26673 4.60352 3.98376 3.86162 4.87187C3.11972 5.75997 2.5788 6.79811 2.276 7.915C4.6914 8.15895 7.13107 7.88624 9.433 7.115C8.59561 5.59382 7.63965 4.14099 6.574 2.77ZM10 2C9.52 2 9.05 2.042 8.595 2.123C9.5962 3.46815 10.4995 4.88346 11.298 6.358C12.68 5.69985 13.967 4.85826 15.124 3.856C13.6872 2.65431 11.8731 1.99718 10 2Z" fill="white"/>
</svg>
