<svg width="18" height="29" viewBox="0 0 18 29" fill="none" xmlns="http://www.w3.org/2000/svg">
<path fill-rule="evenodd" clip-rule="evenodd" d="M2 3.34615C2 3.05034 2.10536 2.76663 2.29289 2.55746C2.48043 2.34828 2.73478 2.23077 3 2.23077H15C15.2652 2.23077 15.5196 2.34828 15.7071 2.55746C15.8946 2.76663 16 3.05034 16 3.34615V25.6538C16 25.9497 15.8946 26.2334 15.7071 26.4425C15.5196 26.6517 15.2652 26.7692 15 26.7692H3C2.73478 26.7692 2.48043 26.6517 2.29289 26.4425C2.10536 26.2334 2 25.9497 2 25.6538V3.34615ZM3 0C2.20435 0 1.44129 0.35254 0.87868 0.980066C0.316071 1.60759 0 2.4587 0 3.34615V25.6538C0 26.5413 0.316071 27.3924 0.87868 28.0199C1.44129 28.6475 2.20435 29 3 29H15C15.7956 29 16.5587 28.6475 17.1213 28.0199C17.6839 27.3924 18 26.5413 18 25.6538V3.34615C18 2.4587 17.6839 1.60759 17.1213 0.980066C16.5587 0.35254 15.7956 0 15 0H3ZM6 23.7577C5.81435 23.7577 5.6363 23.84 5.50502 23.9864C5.37375 24.1328 5.3 24.3314 5.3 24.5385C5.3 24.7455 5.37375 24.9441 5.50502 25.0905C5.6363 25.237 5.81435 25.3192 6 25.3192H12C12.1857 25.3192 12.3637 25.237 12.495 25.0905C12.6262 24.9441 12.7 24.7455 12.7 24.5385C12.7 24.3314 12.6262 24.1328 12.495 23.9864C12.3637 23.84 12.1857 23.7577 12 23.7577H6Z" fill="white"/>
</svg>
