<svg width="23" height="16" viewBox="0 0 23 16" fill="none" xmlns="http://www.w3.org/2000/svg">
<path d="M22.208 0.303997C21.824 1.92533 21.4187 3.67466 20.992 5.552C20.5653 7.42933 20.1813 9.264 19.84 11.056C19.4987 12.848 19.2213 14.4907 19.008 15.984H12.928L12.48 15.28C12.864 13.7867 13.3547 12.1867 13.952 10.48C14.5493 8.73067 15.2107 6.98133 15.936 5.232C16.6613 3.48266 17.3653 1.84 18.048 0.303997H22.208ZM10.368 0.303997C9.984 1.92533 9.57867 3.67466 9.152 5.552C8.72533 7.42933 8.34133 9.264 8 11.056C7.65867 12.848 7.38133 14.4907 7.168 15.984H1.152L0.768 15.28C1.152 13.7867 1.64267 12.1867 2.24 10.48C2.83733 8.73067 3.47733 6.98133 4.16 5.232C4.88533 3.48266 5.58933 1.84 6.272 0.303997H10.368Z" fill="black"/>
</svg>
