<svg width="28" height="28" viewBox="0 0 28 28" fill="none" xmlns="http://www.w3.org/2000/svg">
<path d="M1.53201 26.3278L10.2825 17.5773M21.3018 13.6861L18.6824 21.5456C18.6404 21.6713 18.5687 21.785 18.4735 21.8771C18.3782 21.9693 18.2622 22.0371 18.1351 22.0749L2.07788 26.8489C1.93322 26.8919 1.77955 26.8944 1.63358 26.856C1.48762 26.8177 1.35495 26.7401 1.25003 26.6317C1.14511 26.5232 1.07195 26.388 1.03851 26.2409C1.00508 26.0937 1.01264 25.9402 1.06038 25.7971L6.27438 10.1578C6.31175 10.0455 6.37284 9.94257 6.45351 9.85598C6.53417 9.76938 6.63252 9.70115 6.74188 9.65593L14.149 6.60617C14.2996 6.54398 14.4652 6.52777 14.625 6.55958C14.7848 6.59139 14.9316 6.6698 15.0469 6.78493L21.1024 12.8418C21.2107 12.9501 21.2868 13.0865 21.322 13.2356C21.3572 13.3847 21.3502 13.5407 21.3018 13.6861Z" stroke="white" stroke-width="1.5" stroke-linecap="round" stroke-linejoin="round"/>
<path d="M22.3041 2.37533L25.5546 5.62583C25.7989 5.85953 25.994 6.13966 26.1286 6.44979C26.2631 6.75992 26.3343 7.0938 26.338 7.43183C26.3418 7.76986 26.278 8.10523 26.1503 8.41826C26.0227 8.73129 25.8338 9.01567 25.5948 9.25471C25.3557 9.49374 25.0713 9.68263 24.7583 9.81026C24.4453 9.9379 24.1099 10.0017 23.7719 9.99799C23.4339 9.99425 23.1 9.92303 22.7899 9.7885C22.4797 9.65397 22.1996 9.45885 21.9659 9.21458L18.714 5.96408C18.2554 5.48468 18.0026 4.84476 18.01 4.18133C18.0173 3.5179 18.2841 2.88372 18.7533 2.41458C19.2224 1.94544 19.8566 1.67863 20.52 1.6713C21.1834 1.66396 21.8247 1.91668 22.3041 2.37533Z" fill="white" stroke="white" stroke-width="1.5" stroke-linecap="round" stroke-linejoin="round"/>
<path d="M13.1989 14.6597C13.0086 14.4627 12.781 14.3056 12.5294 14.1975C12.2778 14.0894 12.0071 14.0325 11.7333 14.0301C11.4594 14.0277 11.1878 14.0799 10.9343 14.1836C10.6809 14.2873 10.4506 14.4405 10.2569 14.6341C10.0633 14.8278 9.91012 15.0581 9.80642 15.3115C9.70271 15.565 9.65053 15.8366 9.65291 16.1105C9.65529 16.3843 9.71219 16.655 9.82028 16.9066C9.92837 17.1582 10.0855 17.3858 10.2825 17.5761C10.6715 17.9518 11.1925 18.1597 11.7333 18.155C12.274 18.1503 12.7913 17.9333 13.1737 17.5509C13.5561 17.1685 13.7731 16.6512 13.7778 16.1105C13.7825 15.5697 13.5746 15.0487 13.1989 14.6597Z" stroke="white" stroke-width="1.5" stroke-linecap="round" stroke-linejoin="round"/>
</svg>
