<svg width="33" height="33" viewBox="0 0 33 33" fill="none" xmlns="http://www.w3.org/2000/svg">
<path d="M31.8214 16.4999C31.8214 20.5634 30.2072 24.4605 27.3339 27.3338C24.4606 30.2071 20.5635 31.8213 16.5 31.8213C12.4365 31.8213 8.53946 30.2071 5.66613 27.3338C2.79281 24.4605 1.17859 20.5634 1.17859 16.4999M31.8214 16.4999C31.8214 12.4364 30.2072 8.53934 27.3339 5.66601C24.4606 2.79268 20.5635 1.17847 16.5 1.17847C12.4365 1.17847 8.53946 2.79268 5.66613 5.66601C2.79281 8.53934 1.17859 12.4364 1.17859 16.4999M31.8214 16.4999H1.17859" stroke="white" stroke-width="2" stroke-linecap="round" stroke-linejoin="round"/>
<path d="M22.3929 16.4999C22.1034 22.1028 20.0397 27.4685 16.5 31.8213C12.9604 27.4685 10.8966 22.1028 10.6072 16.4999C10.8966 10.897 12.9604 5.53129 16.5 1.17847C20.0397 5.53129 22.1034 10.897 22.3929 16.4999Z" stroke="white" stroke-width="2" stroke-linecap="round" stroke-linejoin="round"/>
</svg>
