<svg xmlns="http://www.w3.org/2000/svg" xmlns:xlink="http://www.w3.org/1999/xlink">
    <defs>
        <symbol id="icon-key" viewBox="0 0 256 256">
            <path
                d="M216.57,39.43A80,80,0,0,0,83.91,120.78L28.69,176A15.86,15.86,0,0,0,24,187.31V216a16,16,0,0,0,16,16H72a8,8,0,0,0,8-8V208H96a8,8,0,0,0,8-8V184h16a8,8,0,0,0,5.66-2.34l9.56-9.57A79.73,79.73,0,0,0,160,176h.1A80,80,0,0,0,216.57,39.43ZM224,98.1c-1.09,34.09-29.75,61.86-63.89,61.9H160a63.7,63.7,0,0,1-23.65-4.51,8,8,0,0,0-8.84,1.68L116.69,168H96a8,8,0,0,0-8,8v16H72a8,8,0,0,0-8,8v16H40V187.31l58.83-58.82a8,8,0,0,0,1.68-8.84A63.72,63.72,0,0,1,96,95.92c0-34.14,27.81-62.8,61.9-63.89A64,64,0,0,1,224,98.1ZM192,76a12,12,0,1,1-12-12A12,12,0,0,1,192,76Z">
            </path>
        </symbol>
        <symbol id="icon-tree-structure" viewBox="0 0 256 256">
            <path
                d="M160,112h48a16,16,0,0,0,16-16V48a16,16,0,0,0-16-16H160a16,16,0,0,0-16,16V64H128a24,24,0,0,0-24,24v32H72v-8A16,16,0,0,0,56,96H24A16,16,0,0,0,8,112v32a16,16,0,0,0,16,16H56a16,16,0,0,0,16-16v-8h32v32a24,24,0,0,0,24,24h16v16a16,16,0,0,0,16,16h48a16,16,0,0,0,16-16V160a16,16,0,0,0-16-16H160a16,16,0,0,0-16,16v16H128a8,8,0,0,1-8-8V88a8,8,0,0,1,8-8h16V96A16,16,0,0,0,160,112ZM56,144H24V112H56v32Zm104,16h48v48H160Zm0-112h48V96H160Z">
            </path>
        </symbol>
        <symbol id="icon-command" viewBox="0 0 256 256">
            <path
                d="M180,144H160V112h20a36,36,0,1,0-36-36V96H112V76a36,36,0,1,0-36,36H96v32H76a36,36,0,1,0,36,36V160h32v20a36,36,0,1,0,36-36ZM160,76a20,20,0,1,1,20,20H160ZM56,76a20,20,0,0,1,40,0V96H76A20,20,0,0,1,56,76ZM96,180a20,20,0,1,1-20-20H96Zm16-68h32v32H112Zm68,88a20,20,0,0,1-20-20V160h20a20,20,0,0,1,0,40Z">
            </path>
        </symbol>
        <symbol id="icon-copyright" viewBox="0 0 256 256">
            <path
                d="M128,24A104,104,0,1,0,232,128,104.11,104.11,0,0,0,128,24Zm0,192a88,88,0,1,1,88-88A88.1,88.1,0,0,1,128,216ZM96,128a32,32,0,0,0,57.6,19.2,8,8,0,0,1,12.8,9.61,48,48,0,1,1,0-57.62,8,8,0,0,1-12.8,9.61A32,32,0,0,0,96,128Z">
            </path>
        </symbol>
        <symbol id="icon-cursor-click" viewBox="0 0 256 256">
            <path
                d="M88,24V16a8,8,0,0,1,16,0v8a8,8,0,0,1-16,0ZM16,104h8a8,8,0,0,0,0-16H16a8,8,0,0,0,0,16ZM124.42,39.16a8,8,0,0,0,10.74-3.58l8-16a8,8,0,0,0-14.31-7.16l-8,16A8,8,0,0,0,124.42,39.16Zm-96,81.69-16,8a8,8,0,0,0,7.16,14.31l16-8a8,8,0,1,0-7.16-14.31ZM219.31,184a16,16,0,0,1,0,22.63l-12.68,12.68a16,16,0,0,1-22.63,0L132.7,168,115,214.09c0,.1-.08.21-.13.32a15.83,15.83,0,0,1-14.6,9.59l-.79,0a15.83,15.83,0,0,1-14.41-11L32.8,52.92A16,16,0,0,1,52.92,32.8L213,85.07a16,16,0,0,1,1.41,29.8l-.32.13L168,132.69ZM208,195.31,156.69,144h0a16,16,0,0,1,4.93-26l.32-.14,45.95-17.64L48,48l52.2,159.86,17.65-46c0-.11.08-.22.13-.33a16,16,0,0,1,11.69-9.34,16.72,16.72,0,0,1,3-.28,16,16,0,0,1,11.3,4.69L195.31,208Z">
            </path>
        </symbol>
        <symbol id="icon-intersect" viewBox="0 0 256 256">
            <path
                d="M174.63,81.37a80,80,0,1,0-93.26,93.26,80,80,0,1,0,93.26-93.26ZM100.69,136,120,155.31A63.48,63.48,0,0,1,96,160,63.48,63.48,0,0,1,100.69,136Zm33.75,11.13-25.57-25.57a64.65,64.65,0,0,1,12.69-12.69l25.57,25.57A64.65,64.65,0,0,1,134.44,147.13ZM155.31,120,136,100.69A63.48,63.48,0,0,1,160,96,63.48,63.48,0,0,1,155.31,120ZM32,96a64,64,0,0,1,126-16A80.08,80.08,0,0,0,80.05,158,64.11,64.11,0,0,1,32,96ZM160,224A64.11,64.11,0,0,1,98,176,80.08,80.08,0,0,0,176,98,64,64,0,0,1,160,224Z">
            </path>
        </symbol>
        <symbol id="icon-magic-wand" viewBox="0 0 256 256">
            <path
                d="M48,64a8,8,0,0,1,8-8H72V40a8,8,0,0,1,16,0V56h16a8,8,0,0,1,0,16H88V88a8,8,0,0,1-16,0V72H56A8,8,0,0,1,48,64ZM184,192h-8v-8a8,8,0,0,0-16,0v8h-8a8,8,0,0,0,0,16h8v8a8,8,0,0,0,16,0v-8h8a8,8,0,0,0,0-16Zm56-48H224V128a8,8,0,0,0-16,0v16H192a8,8,0,0,0,0,16h16v16a8,8,0,0,0,16,0V160h16a8,8,0,0,0,0-16ZM219.31,80,80,219.31a16,16,0,0,1-22.62,0L36.68,198.63a16,16,0,0,1,0-22.63L176,36.69a16,16,0,0,1,22.63,0l20.68,20.68A16,16,0,0,1,219.31,80Zm-54.63,32L144,91.31l-96,96L68.68,208ZM208,68.69,187.31,48l-32,32L176,100.69Z">
            </path>
        </symbol>
        <symbol id="icon-question" viewBox="0 0 256 256">
            <path
                d="M140,180a12,12,0,1,1-12-12A12,12,0,0,1,140,180ZM128,72c-22.06,0-40,16.15-40,36v4a8,8,0,0,0,16,0v-4c0-11,10.77-20,24-20s24,9,24,20-10.77,20-24,20a8,8,0,0,0-8,8v8a8,8,0,0,0,16,0v-.72c18.24-3.35,32-17.9,32-35.28C168,88.15,150.06,72,128,72Zm104,56A104,104,0,1,1,128,24,104.11,104.11,0,0,1,232,128Zm-16,0a88,88,0,1,0-88,88A88.1,88.1,0,0,0,216,128Z">
            </path>
        </symbol>
        <symbol id="icon-repeat" viewBox="0 0 256 256">
            <path
                d="M24,128A72.08,72.08,0,0,1,96,56H204.69L194.34,45.66a8,8,0,0,1,11.32-11.32l24,24a8,8,0,0,1,0,11.32l-24,24a8,8,0,0,1-11.32-11.32L204.69,72H96a56.06,56.06,0,0,0-56,56,8,8,0,0,1-16,0Zm200-8a8,8,0,0,0-8,8,56.06,56.06,0,0,1-56,56H51.31l10.35-10.34a8,8,0,0,0-11.32-11.32l-24,24a8,8,0,0,0,0,11.32l24,24a8,8,0,0,0,11.32-11.32L51.31,200H160a72.08,72.08,0,0,0,72-72A8,8,0,0,0,224,120Z">
            </path>
        </symbol>
        <symbol id="icon-network" viewBox="0 0 256 256">
            <path
                d="M176,160a39.89,39.89,0,0,0-28.62,12.09l-46.1-29.63a39.8,39.8,0,0,0,0-28.92l46.1-29.63a40,40,0,1,0-8.66-13.45l-46.1,29.63a40,40,0,1,0,0,55.82l46.1,29.63A40,40,0,1,0,176,160Zm0-128a24,24,0,1,1-24,24A24,24,0,0,1,176,32ZM64,152a24,24,0,1,1,24-24A24,24,0,0,1,64,152Zm112,72a24,24,0,1,1,24-24A24,24,0,0,1,176,224Z">
            </path>
        </symbol>
        <symbol id="icon-quotes" viewBox="0 0 256 256">
            <path
                d="M100,56H40A16,16,0,0,0,24,72v64a16,16,0,0,0,16,16h60v8a32,32,0,0,1-32,32,8,8,0,0,0,0,16,48.05,48.05,0,0,0,48-48V72A16,16,0,0,0,100,56Zm0,80H40V72h60ZM216,56H156a16,16,0,0,0-16,16v64a16,16,0,0,0,16,16h60v8a32,32,0,0,1-32,32,8,8,0,0,0,0,16,48.05,48.05,0,0,0,48-48V72A16,16,0,0,0,216,56Zm0,80H156V72h60Z">
            </path>
        </symbol>
        <symbol id="icon-chat-dots" viewBox="0 0 256 256">
            <path
                d="M140,128a12,12,0,1,1-12-12A12,12,0,0,1,140,128ZM84,116a12,12,0,1,0,12,12A12,12,0,0,0,84,116Zm88,0a12,12,0,1,0,12,12A12,12,0,0,0,172,116Zm60,12A104,104,0,0,1,79.12,219.82L45.07,231.17a16,16,0,0,1-20.24-20.24l11.35-34.05A104,104,0,1,1,232,128Zm-16,0A88,88,0,1,0,51.81,172.06a8,8,0,0,1,.66,6.54L40,216,77.4,203.53a7.85,7.85,0,0,1,2.53-.42,8,8,0,0,1,4,1.08A88,88,0,0,0,216,128Z">
            </path>
        </symbol>
    </defs>
</svg>