<svg width="300" height="300" viewBox="0 0 300 300" fill="none" xmlns="http://www.w3.org/2000/svg">
<path d="M65.0043 97.5705V266.712H234.145V97.5705C234.458 69.3804 217.981 13 149.575 13C81.1684 13 64.6918 69.3804 65.0043 97.5705Z" fill="#2C3147" stroke="black" stroke-width="10"/>
<path d="M65.0043 97.5705V266.712H234.145V97.5705C234.458 69.3804 217.981 13 149.575 13C81.1684 13 64.6918 69.3804 65.0043 97.5705Z" fill="#2C3147" stroke="black" stroke-width="10"/>
<path d="M65.0083 97.7906V266.932L212.998 287.855V119.579C212.994 76.6243 198.721 43.1914 138.997 33.8928C79.6913 24.6593 64.7349 69.6004 65.0083 97.7906Z" fill="white" stroke="black" stroke-width="10"/>
<circle cx="184.985" cy="182.132" r="6.37136" fill="#2C3147" stroke="#2C3147"/>
<circle cx="184.985" cy="206.71" r="6.37136" fill="#2C3147" stroke="#2C3147"/>
<path d="M182.736 212.117L176.229 231.31H181.992L191.08 209.885L182.736 212.117Z" fill="#2C3147"/>
</svg>
